HIERARCHY
ROOT Hips
{
	OFFSET 62.890800 8.863803 43.568401
	CHANNELS 6 Xposition Yposition Zposition Zrotation Xrotation Yrotation
	JOINT Chest
	{
		OFFSET -0.160400 1.630001 7.806301
		CHANNELS 6 Xposition Yposition Zposition Zrotation Xrotation Yrotation
		JOINT Chest2
		{
			OFFSET 0.000000 0.000000 3.197998
			CHANNELS 6 Xposition Yposition Zposition Zrotation Xrotation Yrotation
			JOINT Neck
			{
				OFFSET 0.000000 0.000001 7.440701
				CHANNELS 6 Xposition Yposition Zposition Zrotation Xrotation Yrotation
				JOINT Head
				{
					OFFSET 0.000000 0.000000 2.173901
					CHANNELS 6 Xposition Yposition Zposition Zrotation Xrotation Yrotation
					End Site
					{
						OFFSET 0.000000 0.000001 10.420303
					}
				}
			}
			JOINT LeftCollar
			{
				OFFSET 2.426399 -1.880099 4.759399
				CHANNELS 6 Xposition Yposition Zposition Zrotation Xrotation Yrotation
				JOINT LeftShoulder
				{
					OFFSET 4.420197 0.000000 0.000000
					CHANNELS 6 Xposition Yposition Zposition Zrotation Xrotation Yrotation
					JOINT LeftElbow
					{
						OFFSET 0.000000 -0.000001 -10.347099
						CHANNELS 6 Xposition Yposition Zposition Zrotation Xrotation Yrotation
						JOINT LeftWrist
						{
							OFFSET 0.000000 -0.000001 -12.496300
							CHANNELS 6 Xposition Yposition Zposition Zrotation Xrotation Yrotation
							End Site
							{
								OFFSET 0.000000 0.000000 -2.173901
							}
						}
					}
				}
			}
			JOINT RightCollar
			{
				OFFSET -2.781502 -1.903799 5.072601
				CHANNELS 6 Xposition Yposition Zposition Zrotation Xrotation Yrotation
				JOINT RightShoulder
				{
					OFFSET -4.012100 0.000000 0.000000
					CHANNELS 6 Xposition Yposition Zposition Zrotation Xrotation Yrotation
					JOINT RightElbow
					{
						OFFSET 0.000000 -0.000001 -10.346600
						CHANNELS 6 Xposition Yposition Zposition Zrotation Xrotation Yrotation
						JOINT RightWrist
						{
							OFFSET 0.000000 -0.000001 -12.562599
							CHANNELS 6 Xposition Yposition Zposition Zrotation Xrotation Yrotation
							End Site
							{
								OFFSET 0.000000 0.000000 -2.173901
							}
						}
					}
				}
			}
		}
	}
	JOINT LeftHip
	{
		OFFSET 2.047997 -0.047200 -2.693199
		CHANNELS 6 Xposition Yposition Zposition Zrotation Xrotation Yrotation
		JOINT LeftKnee
		{
			OFFSET 0.000000 -0.000001 -18.824400
			CHANNELS 6 Xposition Yposition Zposition Zrotation Xrotation Yrotation
			JOINT LeftAnkle
			{
				OFFSET 0.000000 -0.000002 -19.078199
				CHANNELS 6 Xposition Yposition Zposition Zrotation Xrotation Yrotation
				End Site
				{
					OFFSET 0.000000 -9.342100 0.000001
				}
			}
		}
	}
	JOINT RightHip
	{
		OFFSET -2.129898 -0.022300 -2.538300
		CHANNELS 6 Xposition Yposition Zposition Zrotation Xrotation Yrotation
		JOINT RightKnee
		{
			OFFSET 0.000000 -0.000001 -18.644600
			CHANNELS 6 Xposition Yposition Zposition Zrotation Xrotation Yrotation
			JOINT RightAnkle
			{
				OFFSET 0.000000 -0.000002 -18.801399
				CHANNELS 6 Xposition Yposition Zposition Zrotation Xrotation Yrotation
				End Site
				{
					OFFSET 0.000000 -8.914600 0.000001
				}
			}
		}
	}
}
MOTION
Frames: 7
Frame Time: 0.041667
36.501198 31.259701 34.523277 -95.088432 -63.527781 -7.243626 -0.160400 1.629997 7.806305 -0.005392 24.994688 5.051724 -0.000003 -0.000000 3.198007 1.934300 -3.273399 0.123478 -0.000003 0.000003 7.440699 5.067307 -0.418515 -3.975696 0.000002 0.000003 2.173898 1.027086 -4.807531 3.216198 2.426396 -1.880105 4.759397 -174.427677 185.977828 -188.223607 4.420191 -0.000001 -0.000004 -20.331595 9.613614 -70.140715 0.000004 0.000001 -10.347094 530.440960 -163.150871 -176.817902 -0.000002 0.000000 -12.496301 70.504628 9.447449 377.207907 -2.781502 -1.903802 5.072595 -182.066506 -179.834714 182.893137 -4.012107 0.000003 0.000002 9.574318 5.004662 439.036227 -0.000005 -0.000003 -10.346600 -334.977721 -14.690677 -4.080265 -0.000002 -0.000004 -12.562606 1663.049102 -168.049524 186.594443 2.047997 -0.047208 -2.693196 258.339447 34.814956 47.845694 0.000000 -0.000000 -18.824396 169.728398 176.040435 -121.151560 -0.000002 0.000001 -19.078197 -304.923578 -27.183005 51.826424 -2.129898 -0.022301 -2.538296 -254.217264 39.699955 -50.721712 0.000001 0.000001 -18.644600 173.487857 158.538881 119.850736 0.000003 -0.000004 -18.801399 -40.745466 -20.163068 -44.031706
36.452198 31.245304 34.421974 -95.130246 -63.544132 -7.229266 -0.160402 1.630003 7.806299 0.146818 25.014116 4.982086 0.000009 -0.000001 3.198003 1.860079 -3.297014 0.120899 -0.000000 -0.000000 7.440704 5.092119 -0.578398 -3.956975 -0.000012 -0.000002 2.173911 1.019051 -4.909823 3.248736 2.426409 -1.880100 4.759397 -174.493302 185.879405 -188.296417 4.420194 -0.000005 0.000001 -20.265361 9.494051 -70.123653 0.000008 -0.000004 -10.347092 530.552047 -163.264676 -176.822068 0.000000 0.000013 -12.496298 70.357553 9.418315 377.158429 -2.781501 -1.903800 5.072602 -181.866764 -179.922209 182.882113 -4.012100 -0.000000 0.000000 8.987496 4.859108 439.190343 -0.000000 -0.000004 -10.346600 -334.508733 -14.839172 -3.976653 0.000004 -0.000005 -12.562598 1663.185815 -168.157714 186.890600 2.047987 -0.047202 -2.693207 258.406465 34.867334 47.693295 -0.000007 0.000000 -18.824406 169.547630 176.033058 -120.620499 0.000009 -0.000002 -19.078196 -304.813502 -27.272232 51.683901 -2.129900 -0.022296 -2.538298 -254.089539 39.726836 -50.643595 -0.000001 0.000002 -18.644596 173.585829 158.389683 119.363334 0.000001 0.000002 -18.801403 -40.672872 -20.341176 -43.884747
36.405998 31.230305 34.323082 -95.186889 -63.543961 -7.232151 -0.160402 1.630007 7.806303 0.295713 25.015161 4.956465 0.000010 -0.000007 3.197995 1.789850 -3.313624 0.118273 -0.000003 -0.000000 7.440697 5.169115 -0.715150 -4.037440 -0.000005 0.000003 2.173908 0.983928 -4.991061 3.317732 2.426402 -1.880102 4.759393 -174.560005 185.749904 -188.402121 4.420192 0.000000 0.000004 -20.202672 9.376184 -70.144294 -0.000012 0.000001 -10.347096 530.757499 -163.378753 -176.794829 -0.000011 0.000002 -12.496298 70.167052 9.385519 377.106164 -2.781497 -1.903800 5.072597 -181.570334 -180.083156 182.796626 -4.012100 -0.000000 0.000006 8.317000 4.655591 439.380906 -0.000005 -0.000002 -10.346597 -334.198779 -14.924006 -3.910728 -0.000000 -0.000006 -12.562595 1663.435636 -168.225920 187.169819 2.047995 -0.047207 -2.693200 258.368954 34.842260 47.596300 0.000001 -0.000002 -18.824394 169.503275 176.074081 -120.105543 0.000003 0.000003 -19.078203 -304.564665 -27.304281 51.492222 -2.129899 -0.022299 -2.538297 -254.013752 39.786590 -50.532000 0.000003 -0.000005 -18.644594 173.616947 158.103320 118.925901 0.000002 0.000000 -18.801403 -40.453841 -20.450211 -43.617069
36.362202 31.213406 34.228680 -95.182497 -63.531940 -7.158375 -0.160399 1.629995 7.806302 0.318011 24.988192 4.941006 0.000011 -0.000003 3.197999 1.791565 -3.319724 0.118562 -0.000005 0.000002 7.440699 5.268137 -0.801459 -4.105172 -0.000001 0.000006 2.173906 0.949338 -4.971669 3.371659 2.426401 -1.880099 4.759398 -174.596055 185.699866 -188.463060 4.420187 -0.000006 -0.000008 -20.115903 9.317598 -70.203505 -0.000006 0.000004 -10.347095 530.996719 -163.482982 -176.720490 0.000008 0.000005 -12.496301 69.912628 9.343248 377.064882 -2.781502 -1.903798 5.072598 -181.408595 -180.209501 182.797268 -4.012104 -0.000000 -0.000005 7.950039 4.661322 439.461338 0.000007 -0.000003 -10.346602 -334.167715 -14.904029 -3.876385 0.000002 -0.000002 -12.562592 1663.676605 -168.304249 187.370927 2.047995 -0.047209 -2.693197 258.381466 34.872166 47.453757 0.000001 -0.000002 -18.824398 169.468304 175.984769 -119.586189 0.000003 -0.000003 -19.078201 -304.596712 -27.417498 51.038507 -2.129899 -0.022305 -2.538299 -253.914304 39.779213 -50.461373 0.000002 -0.000008 -18.644592 173.579040 157.831752 118.526130 0.000010 -0.000000 -18.801395 -40.262346 -20.631927 -43.578024
36.320797 31.195408 34.138081 -95.149951 -63.484266 -7.039786 -0.160399 1.630000 7.806301 0.291219 24.905622 4.915272 0.000007 0.000002 3.198004 1.808542 -3.297296 0.118739 -0.000004 0.000006 7.440700 5.418160 -0.853925 -4.190292 -0.000006 0.000004 2.173898 0.901531 -5.020921 3.417218 2.426400 -1.880099 4.759397 -174.587695 185.728567 -188.525119 4.420197 -0.000005 0.000009 -20.041069 9.328217 -70.248946 0.000000 0.000001 -10.347090 531.154469 -163.575900 -176.659920 0.000000 0.000001 -12.496302 69.742372 9.317629 377.024338 -2.781501 -1.903799 5.072597 -181.387640 -180.231904 182.887235 -4.012105 0.000005 0.000001 7.866435 4.844975 439.432515 -0.000010 -0.000001 -10.346589 -334.283118 -14.797637 -3.851381 -0.000002 -0.000005 -12.562590 1663.822279 -168.323032 187.508787 2.047996 -0.047209 -2.693198 258.392203 34.922057 47.287234 -0.000002 -0.000001 -18.824398 169.382858 175.965767 -119.125193 -0.000000 0.000000 -19.078199 -304.566003 -27.512782 50.574242 -2.129894 -0.022303 -2.538299 -253.724316 39.672788 -50.416939 0.000005 -0.000000 -18.644602 173.479510 157.705093 118.115377 0.000002 -0.000001 -18.801399 -40.203166 -20.793010 -43.604713
36.282894 31.177406 34.052483 -95.037930 -63.435013 -6.825006 -0.160401 1.630005 7.806304 0.256796 24.835461 4.856305 0.000010 0.000006 3.197999 1.810817 -3.275394 0.118479 -0.000006 -0.000002 7.440701 5.549572 -0.878669 -4.267226 -0.000010 -0.000003 2.173905 0.859618 -5.052553 3.425487 2.426402 -1.880106 4.759394 -174.589976 185.708759 -188.609745 4.420193 -0.000005 0.000003 -19.948399 9.231019 -70.294231 0.000006 0.000000 -10.347092 531.206324 -163.697436 -176.633255 0.000001 -0.000001 -12.496302 69.644386 9.292126 376.969014 -2.781503 -1.903801 5.072604 -181.410070 -180.237805 182.927110 -4.012099 0.000001 -0.000001 7.861527 5.117698 439.466502 -0.000001 0.000001 -10.346603 -334.624245 -14.659512 -3.870295 0.000007 -0.000013 -12.562603 1664.004345 -168.372264 187.615488 2.047997 -0.047201 -2.693199 258.346195 34.988713 47.141358 0.000005 -0.000004 -18.824400 169.289913 175.962339 -118.642421 0.000011 -0.000000 -19.078201 -304.560485 -27.667105 50.067845 -2.129892 -0.022297 -2.538296 -253.599979 39.529556 -50.349341 0.000003 -0.000002 -18.644598 173.444280 157.619237 117.710551 -0.000002 0.000002 -18.801405 -40.232997 -20.987045 -43.829051
36.248592 31.158298 33.969376 -94.910451 -63.348673 -6.621760 -0.160397 1.630003 7.806301 0.132191 24.727967 4.846491 0.000008 -0.000003 3.198002 1.865709 -3.239914 0.120066 0.000001 0.000001 7.440698 5.689331 -0.866536 -4.313360 -0.000008 -0.000002 2.173897 0.840762 -5.098715 3.428633 2.426405 -1.880097 4.759396 -174.610808 185.722952 -188.671600 4.420197 0.000001 0.000008 -19.794267 9.151223 -70.357690 -0.000008 0.000006 -10.347099 531.137858 -163.814000 -176.629361 0.000007 0.000004 -12.496301 69.632611 9.290113 376.921558 -2.781500 -1.903793 5.072601 -181.370769 -180.311475 182.971151 -4.012102 -0.000004 0.000006 7.817066 5.380887 439.532399 -0.000000 0.000004 -10.346596 -334.874995 -14.512079 -3.863976 0.000011 -0.000010 -12.562591 1663.925442 -168.446795 187.694473 2.047996 -0.047205 -2.693200 258.204865 34.980944 47.016109 -0.000001 -0.000003 -18.824396 169.194919 176.163187 -118.186670 0.000004 -0.000000 -19.078196 -304.346618 -27.893775 49.796771 -2.129898 -0.022301 -2.538296 -253.464714 39.391077 -50.248595 0.000008 -0.000004 -18.644594 173.474224 157.657432 117.260087 0.000009 -0.000006 -18.801399 -40.382302 -21.190115 -44.111213
